<?xml version="1.0" encoding="UTF-8" standalone="no"?>
<svg xmlns:sketch="http://www.bohemiancoding.com/sketch/ns" xmlns="http://www.w3.org/2000/svg" height="18px" width="18px" version="1.1" xmlns:xlink="http://www.w3.org/1999/xlink" viewBox="0 0 18 18"><!-- Generator: Sketch 3.3.2 (12043) - http://www.bohemiancoding.com/sketch -->
 <title>icon.returns.svg</title>
 <desc>Created with Sketch.</desc>
 <g id="Page-1" fill-rule="evenodd" sketch:type="MSPage" fill="none">
  <g id="Home@2x" transform="translate(-750 -10)" fill="#006684" sketch:type="MSArtboardGroup">
   <g id="Home" transform="translate(0 -4)" sketch:type="MSLayerGroup">
    <g id="Header" sketch:type="MSShapeGroup" transform="translate(0 0.6)">
     <g id="Top-Header:-Marketing-Stuff" transform="translate(200 3.4)">
      <g id="Free-Returns" transform="translate(550 6)">
       <path id="icon.returns.svg" d="m9 4c-4.9708 0-9 4.0292-9 9 0 4.971 4.0292 9 9 9 4.971 0 9-4.029 9-9 0-4.9708-4.029-9-9-9zm-4.5 9c0-2.481 2.0188-4.5 4.5-4.5 2.481 0 4.5 2.019 4.5 4.5s-2.019 4.5-4.5 4.5c-2.4812 0-4.5-2.019-4.5-4.5zm3.9376-8.1346v2.8208c-2.6872 0.2814-4.7814 2.5528-4.7814 5.3138 0 0.095 0.0094 0.188 0.014 0.281h-2.8194c-0.003-0.093-0.007-0.187-0.007-0.281 0-4.3082 3.3578-7.8446 7.5938-8.1346zm0.5624 16.291c-0.3816 0-0.7568-0.028-1.125-0.079v-2.854c0.363 0.077 0.7388 0.121 1.125 0.121 2.856 0 5.182-2.243 5.329-5.063h2.82c-0.149 4.368-3.746 7.875-8.149 7.875z"/>
      </g>
     </g>
    </g>
   </g>
  </g>
 </g>
</svg>
